<?xml version="1.0" standalone="no"?><!DOCTYPE svg PUBLIC "-//W3C//DTD SVG 1.1//EN" "http://www.w3.org/Graphics/SVG/1.1/DTD/svg11.dtd"><svg t="1490166979612" class="icon" style="" viewBox="0 0 1024 1024" version="1.1" xmlns="http://www.w3.org/2000/svg" p-id="17170" xmlns:xlink="http://www.w3.org/1999/xlink" width="200" height="200"><defs><style type="text/css"></style></defs><path d="M616.281895 34.310408C681.156741 37.824089 730.876471 92.798074 727.329007 157.099953 723.78283 221.396751 668.3139 270.672122 603.437772 267.158441 538.559072 263.64476 488.843198 208.668234 492.389374 144.368896 495.93555 80.068285 551.403195 30.794187 616.281895 34.310408L616.281895 34.310408ZM324.149726 534.663175C324.149726 534.663175 552.08698 369.13274 626.667216 401.406266 701.243597 433.68233 600.405719 637.731137 593.052448 667.921353 585.700463 698.114109 538.431824 929.228165 693.894182 801.175723 693.894182 801.175723 771.623431 750.162569 660.279412 867.802272 548.934108 985.440703 408.182147 1022.918694 391.376692 934.431362 378.706084 867.723513 445.264688 625.791485 458.601087 534.663171 462.95701 504.903595 424.98889 534.663171 424.98889 534.663171 424.98889 534.663171 315.700084 610.71289 290.536244 567.979622 286.528641 561.173296 313.482921 540.290652 324.149726 534.663175L324.149726 534.663175Z" p-id="17171"></path></svg>