<?xml version="1.0" standalone="no"?><!DOCTYPE svg PUBLIC "-//W3C//DTD SVG 1.1//EN" "http://www.w3.org/Graphics/SVG/1.1/DTD/svg11.dtd"><svg t="1490879896351" class="icon" style="" viewBox="0 0 1024 1024" version="1.1" xmlns="http://www.w3.org/2000/svg" p-id="7684" xmlns:xlink="http://www.w3.org/1999/xlink" width="128" height="128"><defs><style type="text/css"></style></defs><path d="M843.176167 540.278043c0 42.023092-7.91425 81.589227-23.743774 118.703519-15.82543 37.112246-37.518498 69.993121-65.080228 98.645694s-60.035328 52.120055-97.417727 70.403466c-37.386492 18.283412-77.635171 29.336142-120.750131 33.154098-2.730181 0.547469-5.184069 0.954745-7.370875 1.231037-2.182712 0.271176-4.6366 0.406253-7.366781 0.406253L379.822097 862.822111c-9.278317 0-18.419512-1.638313-27.425629-4.91187-9.006118-3.27458-17.056468-7.77508-24.152073-13.507642-7.094582-5.731538-12.95915-12.415774-17.599843-20.057825-4.6366-7.638981-6.959505-15.553231-6.959505-23.73968s2.186805-16.101723 6.55223-23.740704c4.364401-7.642051 10.096962-14.190187 17.192567-19.646456 7.094582-5.460362 15.005762-9.824763 23.73968-13.099343 8.729825-3.273557 17.735943-4.91187 27.013237-4.91187l126.889969 0.818645c28.924773 0 56.214303-5.320169 81.864496-15.9646 25.650193-10.641361 48.027853-24.967648 67.130933-42.97886 19.098987-18.009166 34.108842-39.158858 45.025473-63.444984 10.912537-24.284079 16.372899-50.345642 16.372899-78.17957 0-26.197662-4.912893-50.755987-14.737656-73.678046-9.821693-22.920012-23.328311-43.386136-40.520879-61.398372-17.192567-18.011212-37.250392-32.609699-60.171428-43.797505-22.920012-11.18883-47.755654-18.148335-74.497715-20.874423-1.090844 0-1.774413 0.1361-2.046612 0.408299-0.272199 0.271176-0.955768 0.411369-2.046612 0.411369L391.282103 340.528674l0 64.671928c0 9.277294-3.685949 16.09763-11.05273 20.466124-7.366781 4.365424-19.23918 1.635243-35.612079-8.18645-4.364401-2.730181-11.323906-7.506974-20.8734-14.326287-9.549493-6.823406-20.738323-14.873756-33.565467-24.15105-12.82305-9.278317-26.333762-19.10308-40.519856-29.472242l-40.932248-31.107485c-8.18645-6.547113-15.282055-12.415774-21.285792-17.599843-6.003737-5.184069-9.006118-11.600199-9.006118-19.23918 0-6.547113 3.409656-13.370519 10.233062-20.466124 6.823406-7.094582 14.598486-14.190187 23.332405-21.284769 9.82067-8.18645 21.556968-17.736966 35.199687-28.652574 13.646811-10.916631 27.15343-21.557992 40.524972-31.927153 13.370519-10.369162 25.379017-19.782555 36.019355-28.244274 10.640338-8.458649 18.147312-14.326287 22.512736-17.599843 13.099343-9.278317 23.73968-11.18883 31.92613-5.728468 8.18645 5.456269 12.551874 13.642718 13.099343 24.559349l0 65.491597 130.163525 0c2.730181 0 5.596462 0.271176 8.597819 0.815575 3.00238 0.547469 5.863545 1.090844 8.593725 1.638313 42.571584 4.365424 82.411965 15.554254 119.523187 33.565467 37.111223 18.008142 69.448722 41.340547 97.010451 69.993121s49.118698 61.533448 64.671928 98.648764C835.396993 459.505415 843.176167 498.79935 843.176167 540.278043L843.176167 540.278043zM843.176167 540.278043" p-id="7685" fill="#515151"></path></svg>