<?xml version="1.0" standalone="no"?><!DOCTYPE svg PUBLIC "-//W3C//DTD SVG 1.1//EN" "http://www.w3.org/Graphics/SVG/1.1/DTD/svg11.dtd"><svg t="1491482777451" class="icon" style="" viewBox="0 0 1024 1024" version="1.1" xmlns="http://www.w3.org/2000/svg" p-id="18659" xmlns:xlink="http://www.w3.org/1999/xlink" width="128" height="128"><defs><style type="text/css"></style></defs><path d="M545.280987 573.749366c18.574031-10.393721 35.831067-23.407106 51.294247-38.871309 44.059472-44.059472 68.324108-102.639658 68.324108-164.948773s-24.264637-120.890324-68.324108-164.949796c-44.060495-44.059472-102.640682-68.324108-164.949796-68.324108s-120.890324 24.264637-164.949796 68.324108c-44.060495 44.059472-68.325132 102.639658-68.325132 164.949796s24.264637 120.890324 68.325132 164.948773c15.46318 15.46318 32.720216 28.477588 51.294247 38.870286C169.189354 618.010429 55.304583 746.989989 36.046984 907.815861c-1.680269 14.028505 8.330736 26.762527 22.360264 28.442796 14.031575 1.684362 26.762527-8.330736 28.442796-22.35924 20.85498-174.165692 169.07679-305.503972 344.775394-305.503972 175.698604 0 323.920414 131.338281 344.776418 305.503972 1.556449 12.995989 12.598946 22.543436 25.368784 22.543436 1.014096-0.001023 2.040473-0.061398 3.074012-0.185218 14.028505-1.680269 24.038486-14.414291 22.35924-28.442796C807.945269 746.989989 694.060499 618.010429 545.280987 573.749366zM249.51582 369.929284c0-100.414991 81.693604-182.108594 182.108594-182.108594 100.414991 0 182.108594 81.693604 182.108594 182.108594s-81.693604 182.108594-182.108594 182.108594C331.209424 552.037878 249.51582 470.344275 249.51582 369.929284z" p-id="18660"></path><path d="M989.376435 907.815861c-10.007935-83.58672-41.965787-163.508981-92.416829-231.130078-42.289152-56.68093-96.593965-103.513562-158.470221-136.967488 21.376866-18.656919 39.618323-40.839127 53.704133-65.554018 21.61018-37.918611 33.033347-81.155345 33.033347-125.033691 0-48.045249-13.537318-94.798063-39.149649-135.203308-24.908296-39.294958-60.07933-70.951959-101.709473-91.548042-12.660344-6.264681-28.008914-1.079588-34.273595 11.585873-6.265704 12.663414-1.078565 28.008914 11.584849 34.274618 33.223682 16.436344 61.295018 41.707914 81.182974 73.081459 20.409842 32.199353 31.198559 69.480444 31.198559 107.810425 0 35.010375-9.102309 69.485561-26.321482 99.6997-16.717753 29.334095-40.744983 54.229089-69.483514 71.993684-12.018731 7.429203-15.739473 23.194258-8.31027 35.211966 1.200338 1.941212 2.618641 3.664459 4.202719 5.161556 2.587941 3.87833 6.261611 7.099698 10.833743 9.141194 67.484997 30.128181 126.605489 77.483722 170.966836 136.943952 45.107337 60.457954 73.678046 131.905192 82.624812 206.617801 1.556449 12.995989 12.598946 22.543436 25.368784 22.543436 1.014096 0 2.040473-0.061398 3.074012-0.185218C981.045699 934.578388 991.05568 921.844366 989.376435 907.815861z" p-id="18661"></path></svg>