<?xml version="1.0" standalone="no"?><!DOCTYPE svg PUBLIC "-//W3C//DTD SVG 1.1//EN" "http://www.w3.org/Graphics/SVG/1.1/DTD/svg11.dtd"><svg t="1491482702548" class="icon" style="" viewBox="0 0 1307 1024" version="1.1" xmlns="http://www.w3.org/2000/svg" p-id="15873" xmlns:xlink="http://www.w3.org/1999/xlink" width="163.375" height="128"><defs><style type="text/css"></style></defs><path d="M1160.471 579.61c15.201 0 27.535-12.365 27.535-27.567v-357.206c0-22.082-6.907-42.509-18.558-59.389-0.479-0.766-0.594-1.649-1.133-2.391-0.913-1.188-2.163-1.843-3.211-2.867-19.183-24.237-48.508-40.065-81.809-40.065h-867.125c-57.852 0-104.711 46.86-104.711 104.711v634.358c0 57.858 46.86 104.68 104.711 104.68h867.125c57.858 0 104.711-46.822 104.711-104.68v-87.249c-0.086-15.145-12.359-27.419-27.535-27.419-15.171 0-27.504 12.274-27.565 27.419v81.741c0 30.457-24.716 55.126-55.126 55.126h-856.096c-30.408 0-55.131-24.668-55.131-55.126v-623.334c0-3.015 0.428-5.887 0.883-8.787l481.757 392.959c0.024 0 0.080 0.030 0.11 0.061 4.297 3.204 9.179 4.57 14.123 5.109 1.423 0.257 2.813 0.172 4.265 0.203 1.421-0.030 2.813 0.055 4.234-0.203 4.97-0.538 9.858-1.905 14.123-5.109 0.024-0.032 0.086-0.061 0.112-0.061l446.349-388.18c0.086 1.337 0.399 2.642 0.399 4.008v351.697c0 15.195 12.333 27.561 27.565 27.561v0zM221.683 145.219h856.096c7.249 0 14.154 1.484 20.52 4.040l-430.609 376.305-461.696-377.783c5.004-1.507 10.2-2.562 15.69-2.562v0zM221.683 145.219z" p-id="15874"></path></svg>