<?xml version="1.0" standalone="no"?><!DOCTYPE svg PUBLIC "-//W3C//DTD SVG 1.1//EN" "http://www.w3.org/Graphics/SVG/1.1/DTD/svg11.dtd"><svg t="1491482801469" class="icon" style="" viewBox="0 0 1024 1024" version="1.1" xmlns="http://www.w3.org/2000/svg" p-id="19465" xmlns:xlink="http://www.w3.org/1999/xlink" width="128" height="128"><defs><style type="text/css"></style></defs><path d="M799.114 668.318c-56.144-24.567-85.231-56.398-85.478-56.68-1.121-1.258-2.223-2.206-3.645-3.117-0.802-0.966-1.404-4.21-1.413-7.682 22.19-27.694 37.982-88.384 43.996-114.464 35.813-18.691 42.766-60.116 41.171-79.654 0-25.606-11.528-40.351-24.486-47.34 2.251-90.444 1.887-132.507-27.302-161.403 7.4-15.801 7.638-30.655 7.628-32.796-0.019-6.443-3.362-12.412-8.838-15.801-5.46-3.39-12.294-3.709-18.09-0.867-0.163 0.064-19.547 9.304-42.318 6.434-9.249-1.185-16.931-3.591-25.825-6.37-16.267-5.084-34.701-10.844-66.622-10.844-46.703 0-78.834 18.672-87.417 49.646-64.6 22.645-59.251 117.964-53.2 172.612-12.366 7.126-23.164 21.406-23.128 45.262-1.649 20.887 5.305 62.422 41.117 81.122 6.014 26.08 21.807 86.77 43.986 114.464 0 3.48-0.557 6.679-1.222 7.526-1.385 0.894-2.679 2.005-3.781 3.226-0.293 0.319-29.388 32.158-84.583 56.343-16.559 6.197-161.732 62.768-161.732 139.068l0 58.577c0 10.307 8.356 18.662 18.662 18.662l664.65 0c10.307 0 18.662-8.356 18.662-18.662l0-58.577C959.907 730.704 814.732 674.133 799.114 668.318zM481 604.501c2.601-3.035 2.117-8.821 0.758-15.547-0.938-4.642-3.719-8.44-5.925-14.203-2.307-6.029-6.694-12.892-10.083-19.75-1.231-2.492-2.653-4.686-4-7.25-3.589-6.836-9.04-14.231-13.25-21.333-4.21-7.101-7.784-14.338-12.333-21.333-2.43-3.736-4.722-10.607-6.917-14.333-4.342-7.373-7.29-11.921-11-18.5-11.261-19.971-18.302-38.656-18-41.75-1.5-18.5 15.75-79.5 17.25-97.5 2-11-3.646-14.998-1.5-30.25-1.75-13.933-3.23-62.786-3.23-62.786-4.67 1.709-20.317 5.968-31.384 4.547-6.396-0.811-11.864-2.523-18.189-4.501-11.719-3.654-26.299-8.211-50.557-8.211-35.686 0-60.636 14.125-68.437 37.718-47.422 18.635-44.78 87.044-40.423 128.415-9.205 6.37-16.731 17.725-16.695 35.512-1.275 16.193 4.01 48.023 30.911 63.424 4.738 20.03 15.929 61.493 31.712 82.635-0.018 0.354-0.054 0.684-0.109 0.975-0.802 0.647-1.568 1.358-2.242 2.105-0.2 0.228-21.087 22.973-60.398 40.204-20.431 7.654-122.365 48.771-122.365 107.075l0 43.156c0 10.308 8.347 18.662 18.662 18.662l137.847 0 21.231-26.929 18-22.167 21.167-22.166 22.667-16.167 35.667-19.167" p-id="19466"></path></svg>