<?xml version="1.0" standalone="no"?><!DOCTYPE svg PUBLIC "-//W3C//DTD SVG 1.1//EN" "http://www.w3.org/Graphics/SVG/1.1/DTD/svg11.dtd"><svg t="1491482742682" class="icon" style="" viewBox="0 0 1024 1024" version="1.1" xmlns="http://www.w3.org/2000/svg" p-id="17309" xmlns:xlink="http://www.w3.org/1999/xlink" width="128" height="128"><defs><style type="text/css"></style></defs><path d="M1011.964343 336.362057c-0.285257-0.6784-0.213943-1.3568-0.356571-2.0352L878.392686 67.898514c-9.000229-17.499429-27.249371-29.500343-48.321829-29.500343L193.607314 38.398171c-20.821943 0-38.857143 11.785143-47.928686 28.964571L10.644114 337.398857c-5.500343 12.500114-9.749943 26.143086-9.749943 40.714971 0 5.7856 1.000229 11.357257 2.177829 16.8576 11.214629 52.2496 53.463771 92.999314 106.536229 101.999543l0 455.714743c0 20.214857 16.356571 36.571429 36.571429 36.571429l731.428571 0c20.214857 0 36.571429-16.356571 36.571429-36.571429L914.179657 496.969143c54.070857-9.179429 97.106286-51.214629 107.357257-104.8576 0.213943-1.214171 0.285257-2.499657 0.464457-3.713829 0.643657-4.072229 0.8576-8.285257 1.142857-12.500114C1022.608457 361.576229 1017.393371 348.719543 1011.964343 336.362057zM841.0368 916.112457l-658.285714 0L182.751086 488.826514c16.749714-7.107657 31.535543-17.749943 43.893029-30.714514 8.572343 9.000229 18.464914 16.464457 29.249829 22.749257l0 288.963657c0 20.214857 16.356571 36.571429 36.571429 36.571429l438.857143 0c20.214857 0 36.571429-16.356571 36.571429-36.571429L767.893943 480.863086c10.784914-6.286629 20.679314-13.750857 29.249829-22.749257 12.357486 12.964571 27.143314 23.606857 43.893029 30.714514L841.0368 916.112457zM329.0368 733.255314 329.0368 498.433829c34.464914-1.929143 65.393371-16.821029 87.786057-40.321829 24 25.179429 57.642057 41.071543 95.071086 41.071543s71.071086-15.892114 95.071086-41.071543c22.392686 23.5008 53.321143 38.392686 87.786057 40.321829l0 234.821486L329.0368 733.255314zM892.2496 426.040686c-29.822171 0-54.213486-22.500571-57.821257-51.357257 0 0.071314 0 0.285257 0 0.250514-2.428343-18.249143-18.177829-32.427886-37.1072-32.427886-18.499657 0-33.892571 13.463771-36.856686 31.107657-0.036571 0.285257-0.071314-1.142857-0.142629-3.713829-1.250743 31.1424-26.784914 56.142629-58.249143 56.142629-30.965029 0-56.142629-24.250514-58.143086-54.714514-0.036571 1.786514-0.036571 2.929371-0.071314 2.750171-2.428343-18.249143-18.177829-32.427886-37.1072-32.427886-18.499657 0-33.892571 13.463771-36.856686 31.107657 0 0.036571 0-0.142629 0-0.142629-2.642286 29.856914-27.499886 53.429029-58.000457 53.429029-30.142171 0-54.749257-22.999771-57.857829-52.357486-2.642286-18.0352-18.2144-32.036571-36.999314-32.036571-18.499657 0-33.892571 13.463771-36.856686 31.107657-0.036571 0.250514-0.071314-1.000229-0.142629-3.285943-1.000229 31.3216-26.678857 56.572343-58.322286 56.572343-30.036114 0-54.606629-22.893714-57.857829-52.072229 0 0 0 0.142629 0 0.107886-2.428343-18.249143-18.177829-32.427886-37.1072-32.427886-18.499657 0-33.892571 13.463771-36.856686 31.107657-0.036571 0.213943-0.071314-0.821029-0.107886-2.428343-1.464686 30.928457-26.929371 55.714743-58.249143 55.714743-29.7856 0-54.178743-22.500571-57.786514-51.320686l131.607771-263.178971 613.070629 0 131.607771 263.178971C946.428343 403.541943 922.037029 426.040686 892.2496 426.040686z" p-id="17310"></path></svg>