<?xml version="1.0" standalone="no"?><!DOCTYPE svg PUBLIC "-//W3C//DTD SVG 1.1//EN" "http://www.w3.org/Graphics/SVG/1.1/DTD/svg11.dtd"><svg t="1490165902118" class="icon" style="" viewBox="0 0 1024 1024" version="1.1" xmlns="http://www.w3.org/2000/svg" p-id="16499" xmlns:xlink="http://www.w3.org/1999/xlink" width="200" height="200"><defs><style type="text/css"></style></defs><path d="M698.131968 963.584l-31.232-0.512H319.251968c-18.432 0-39.936-1.024-56.32-11.776-10.24-6.144-23.552-19.456-29.696-35.328-5.12-13.312-4.608-28.16-4.608-41.984V522.24c-3.584 2.048-7.68 4.096-11.776 6.144-20.48 8.704-48.128 4.096-68.608-9.728-7.168-5.12-12.288-10.752-16.896-15.36l-10.752-10.752-37.376-35.84-20.48-20.48C56.595968 430.592 50.451968 424.96 44.819968 418.816l-6.144-6.144c-1.536-1.536-3.584-3.584-5.632-5.12-8.192-7.68-18.432-16.896-25.088-31.744-3.584-8.192-10.24-23.04-7.168-38.912 5.632-29.696 23.552-45.568 38.4-58.368 5.12-4.608 8.704-8.192 12.288-11.776 4.096-4.096 8.192-8.192 12.8-12.288l164.352-161.28c7.68-7.68 18.432-18.432 33.792-24.576l24.576-6.144s67.584-4.608 89.6 0c7.68 1.536 22.016 9.216 28.16 14.336 9.216 7.168 15.872 15.36 21.504 23.04l1.536 2.048c4.608 6.144 15.872 13.824 26.112 17.92 11.776 5.12 25.6 8.192 41.984 11.264l19.968 1.024c3.584 0 8.704-0.512 14.336-2.048 32.256-6.656 45.056-10.752 63.488-25.6 1.536-1.536 4.096-4.608 6.144-7.68 4.096-5.632 9.216-12.8 16.896-18.432l18.432-12.288c4.096-1.536 12.288-4.096 15.872-4.608 6.656-1.024 59.904 0 66.048 0 24.064 0 38.912 2.048 50.176 8.192 12.8 6.656 21.504 15.872 29.696 24.064l154.624 151.04c6.144 6.656 12.288 12.288 18.432 17.92 7.168 6.656 14.336 13.312 20.48 20.48l5.632 5.632c8.704 8.704 19.456 18.944 25.6 36.352l1.536 6.656c0 2.048 0 4.608 0.512 6.656 4.096 28.16-11.776 47.616-17.408 55.296l-2.048 2.56L906.003968 491.52c-12.8 14.848-30.72 34.816-57.856 39.936-22.016 4.096-38.912-1.536-51.712-9.216v283.136c0 31.744 0 62.976-0.512 94.72l-0.512 4.608c-3.584 16.384-13.312 32.768-26.112 42.496-20.48 15.36-47.616 16.384-71.168 16.384z m-358.4-48.64l358.4 0.512c9.728 0 32.768 0 41.472-6.656 2.56-2.048 6.144-7.168 7.68-11.776 0-30.208 0.512-60.928 0.512-91.648V462.848l31.232-21.504 26.624 25.6c12.8 12.288 20.48 18.944 33.792 16.384 10.752-2.048 20.992-13.824 30.208-24.064l3.072-3.584 96.256-93.696c5.632-7.68 7.68-12.288 6.656-17.92l-0.512-3.584V337.92c-2.56-5.12-6.144-9.216-12.8-15.36l-6.656-6.656c-5.632-6.144-12.288-12.288-18.432-17.92-6.656-6.144-13.824-12.8-19.968-19.456L763.155968 128.512c-6.144-6.144-12.288-12.288-17.92-15.36-0.512-0.512-6.144-2.56-27.136-2.56-6.144 0-12.288 0-18.432 0.512-6.144 0-11.776 0.512-16.896 0.512h-19.456c-3.072 1.024-5.12 1.024-7.168 1.536l-10.752 6.144c-1.536 1.536-3.584 4.608-6.144 7.168-3.584 5.12-8.192 11.264-15.36 16.896-26.624 20.992-47.616 28.16-84.48 35.328-13.312 2.56-24.576 3.584-33.792 2.048l-16.896-1.536c-20.48-3.584-37.376-7.68-53.76-14.336-14.336-6.144-33.792-17.92-45.568-32.768l-1.536-2.048c-4.608-6.144-8.704-10.752-12.8-14.336-1.024-0.512-3.072-1.024-4.608-1.536-2.048-1.024-4.096-1.536-6.656-2.56H301.843968l-14.336 1.024c-9.728 0.512-14.336 4.608-24.064 14.848l-29.696 29.184-136.192 133.12c-4.096 4.096-7.68 7.168-11.264 10.752l-13.312 13.312c-14.336 12.8-21.504 19.456-23.552 32.256 0 2.048 2.56 7.168 3.072 9.216 2.56 6.144 6.656 10.24 13.824 16.384 2.56 2.048 4.608 4.096 7.168 6.656l6.656 7.168c5.12 5.12 9.728 10.24 15.36 14.848l2.048 1.536c6.656 7.168 13.312 13.824 20.48 20.48l48.64 47.104c3.584 3.584 6.656 7.168 10.24 9.216 5.12 3.584 15.872 7.168 22.016 4.608 9.216-3.584 16.384-10.752 24.576-19.456 4.096-4.096 19.456-21.504 19.456-21.504l34.816 20.48V875.52c0 9.216 0 19.456 1.536 24.064 1.536 3.584 6.144 9.216 10.24 11.776 6.144 4.096 24.064 4.096 30.208 4.096l19.968-0.512z" p-id="16500"></path></svg>