<?xml version="1.0" standalone="no"?><!DOCTYPE svg PUBLIC "-//W3C//DTD SVG 1.1//EN" "http://www.w3.org/Graphics/SVG/1.1/DTD/svg11.dtd"><svg t="1491482722290" class="icon" style="" viewBox="0 0 1024 1024" version="1.1" xmlns="http://www.w3.org/2000/svg" p-id="16549" xmlns:xlink="http://www.w3.org/1999/xlink" width="128" height="128"><defs><style type="text/css"></style></defs><path d="M569.606 439.227c-25.246 10.393-48.387 24.251-69.427 41.574-21.039 17.325-39.228 37.126-54.573 59.401-15.343 22.272-27.225 46.653-35.639 73.136-8.415 26.482-12.623 54.326-12.623 83.529 0 25.741 3.343 50.363 10.025 73.875 6.68 23.513 15.963 45.668 27.845 66.455h-20.048c-14.353 0-31.057-0.491-50.117-1.483-19.055-0.991-38.73-2.354-59.026-4.087-20.293-1.729-40.468-3.712-60.513-5.934-20.050-2.228-38.24-4.583-54.573-7.056-16.338-2.472-30.198-4.95-41.581-7.427-11.387-2.469-18.563-4.947-21.53-7.422-5.446-3.962-9.527-16.211-12.253-36.751-2.72-20.545-1.609-46.907 3.341-79.075 1.976-12.376 6.067-22.528 12.248-30.444 6.191-7.921 13.738-14.724 22.65-20.415 8.907-5.695 18.81-10.274 29.702-13.738 10.887-3.466 22.026-6.806 33.412-10.027 11.382-3.218 22.396-6.683 33.035-10.397 10.645-3.712 20.421-8.288 29.332-13.733 10.393-6.438 18.44-12.748 24.13-18.934 5.691-6.188 9.782-12.249 12.252-18.193 2.476-5.934 3.711-12.125 3.711-18.561 0-6.437-0.245-13.61-0.744-21.531-0.99-11.385-4.947-20.416-11.878-27.098-6.931-6.681-14.6-13.493-23.017-20.419-3.96-3.466-7.546-8.291-10.766-14.483-3.216-6.183-6.062-12.494-8.537-18.93-2.476-7.427-4.947-15.093-7.423-23.019-3.467-0.986-6.931-2.721-10.397-5.197-2.97-2.471-6.188-5.936-9.652-10.393-3.467-4.456-6.432-10.892-8.908-19.309-2.476-8.412-3.471-16.084-2.971-23.012 0.495-6.931 1.976-13.121 4.452-18.563 1.985-5.446 5.197-10.646 9.655-15.593 0-18.81 0.986-37.619 2.966-56.429 1.981-15.843 5.446-32.918 10.398-51.233 4.95-18.319 12.623-34.653 23.016-49.007 9.902-13.863 20.543-25.12 31.927-33.783 11.387-8.663 23.266-15.468 35.642-20.414 12.373-4.956 24.622-8.292 36.75-10.028 12.128-1.733 23.882-2.599 35.265-2.599 14.359 0 28.587 1.609 42.696 4.826 14.108 3.219 27.351 7.548 39.724 12.994 12.377 5.445 23.385 11.633 33.042 18.563 9.648 6.93 17.2 13.858 22.642 20.789 12.872 15.839 22.275 33.288 28.216 52.343 5.941 19.059 10.152 37.25 12.621 54.577 2.479 19.796 3.714 39.845 3.714 60.141 3.466 2.476 6.187 5.692 8.168 9.652 1.981 3.467 3.591 7.922 4.826 13.364 1.239 5.445 1.364 12.128 0.374 20.048-0.991 10.893-3.096 19.431-6.312 25.617-3.219 6.187-6.805 11.012-10.77 14.477-4.452 3.958-9.155 6.683-14.105 8.168-0.991 2.967-1.981 6.191-2.967 9.648l-3.715 10.402c-0.992 3.462-2.232 7.173-3.713 11.137v0 0zM675.778 462.979c32.177 0 62.494 6.19 90.956 18.563 28.462 12.378 53.215 29.207 74.247 50.49 21.040 21.285 37.748 46.156 50.118 74.618 12.377 28.466 18.563 58.779 18.563 90.959 0 32.175-6.182 62.492-18.563 90.954-12.374 28.462-29.077 53.329-50.118 74.616-21.032 21.29-45.786 37.997-74.247 50.122-28.463 12.127-58.779 18.187-90.956 18.187-32.669 0-63.235-6.065-91.697-18.187-28.459-12.128-53.213-28.832-74.248-50.122-21.037-21.287-37.744-46.157-50.117-74.616-12.377-28.463-18.563-58.779-18.563-90.954 0-32.179 6.188-62.493 18.563-90.959 12.373-28.462 29.080-53.332 50.117-74.617 21.036-21.283 45.789-38.112 74.248-50.49 28.462-12.373 59.028-18.563 91.697-18.563v0 0zM812.395 651.573c2.975-9.896 1.61-18.93-4.082-27.103-5.692-8.167-13.238-13.982-22.645-17.447-9.403-3.463-18.809-3.712-28.217-0.742-9.402 2.971-16.329 10.643-20.785 23.016-2.476 8.417-4.825 16.211-7.057 23.394-2.226 7.174-4.456 14.721-6.682 22.642-2.226 7.923-4.946 16.457-8.167 25.621-3.216 9.155-7.301 19.674-12.251 31.553-4.948 12.867-12.004 18.934-21.16 18.188-9.157-0.742-16.21-6.059-21.16-15.962-5.446-9.901-10.522-20.541-15.219-31.924-4.705-11.387-9.282-22.53-13.738-33.412-4.459-10.893-8.416-20.797-11.882-29.702-3.462-8.913-6.432-16.091-8.912-21.541-3.956-7.915-10.513-12.369-19.671-13.358-9.157-0.99-18.073 0.371-26.731 4.080-8.663 3.712-15.839 9.532-21.532 17.451-5.691 7.922-6.56 16.583-2.599 25.987 3.466 9.902 7.422 21.039 11.877 33.412 4.452 12.376 9.162 24.998 14.108 37.868 4.951 12.868 9.649 25.492 14.108 37.868 4.456 12.372 8.412 23.016 11.879 31.924 7.425 18.809 18.688 32.92 33.782 42.322 15.103 9.409 30.938 14.357 47.522 14.849 16.579 0.497 32.422-3.219 47.52-11.136 15.099-7.92 26.112-19.8 33.038-35.639 5.446-12.868 11.017-26.356 16.704-40.467 5.695-14.101 11.142-27.843 16.342-41.208 5.193-13.365 10.024-26.237 14.475-38.611 4.456-12.376 8.168-23.017 11.137-31.926v0 0zM812.395 651.573z" p-id="16550"></path></svg>