<?xml version="1.0" standalone="no"?><!DOCTYPE svg PUBLIC "-//W3C//DTD SVG 1.1//EN" "http://www.w3.org/Graphics/SVG/1.1/DTD/svg11.dtd"><svg t="1491320504027" class="icon" style="" viewBox="0 0 1024 1024" version="1.1" xmlns="http://www.w3.org/2000/svg" p-id="7738" xmlns:xlink="http://www.w3.org/1999/xlink" width="128" height="128"><defs><style type="text/css"></style></defs><path d="M344.4593 791.382c15.4235 0 27.902-12.4795 27.902-27.902V456.558592c0-15.4225-12.4795-27.902-27.902-27.902-15.4225 0-27.902 12.4805-27.902 27.902v306.92249599999997C316.5573 778.9036 329.0368 791.382 344.4593 791.382zM511.872 791.382c15.4235 0 27.902-12.4795 27.902-27.902V456.558592c0-15.4225-12.4795-27.902-27.902-27.902s-27.902 12.4805-27.902 27.902v306.92249599999997C483.969 778.9036 496.4485 791.382 511.872 791.382zM679.2837 791.382c15.4235 0 27.902-12.4795 27.902-27.902V456.558592c0-15.4225-12.4795-27.902-27.902-27.902s-27.902 12.4805-27.902 27.902v306.92249599999997C651.3818 778.9036 663.8602 791.382 679.2837 791.382zM818.7935 149.6361H703.2340479999999c-12.4795-48.0113-55.8039-83.7059-107.6572-83.7059H428.16512000000006c-51.8533 0-95.1777 35.6946-107.6572 83.7059H204.949504c-61.5526 0-111.6078 50.0828-111.6078 111.6078v27.902976h27.901952v27.901952h55.803904v530.138112c0 61.526 50.0552 111.6078 111.6078 111.6078h446.432256c61.5547 0 111.6078-50.0818 111.6078-111.6078V317.047808h55.803904v-27.901952h27.901952v-27.902976C930.4013 199.7179 880.3482 149.6361 818.7935 149.6361zM428.1651 121.7341h167.411712c20.5445 0 38.3652 11.308 48.0389 27.902H380.12723200000005C389.801 133.0422 407.6206 121.7341 428.1651 121.7341zM790.8915 847.1859c0 30.7896-25.0399 55.8039-55.8039 55.8039H288.65536000000003c-30.763 0-59.6726-25.0143-59.6726-55.8039l3.8687-530.1381h558.040064V847.1859199999999zM149.1446 261.2439c0-30.7896 25.0419-55.8039 55.8039-55.8039H818.793472c30.7651 0 55.8039 25.0143 55.8039 55.8039H149.144576z" p-id="7739" fill="#8a8a8a"></path></svg>