<?xml version="1.0" standalone="no"?><!DOCTYPE svg PUBLIC "-//W3C//DTD SVG 1.1//EN" "http://www.w3.org/Graphics/SVG/1.1/DTD/svg11.dtd"><svg t="1489829163445" class="icon" style="" viewBox="0 0 1024 1024" version="1.1" xmlns="http://www.w3.org/2000/svg" p-id="2002" xmlns:xlink="http://www.w3.org/1999/xlink" width="200" height="200"><defs><style type="text/css"></style></defs><path d="M236.874919 132.881426 99.157347 132.881426c-19.007913 0-34.43323 15.425318-34.43323 34.43323 0 19.000749 15.425318 34.426067 34.43323 34.426067l137.717571 0c19.007913 0 34.43323-15.425318 34.43323-34.426067C271.308149 148.306744 255.882831 132.881426 236.874919 132.881426L236.874919 132.881426zM236.874919 132.881426" p-id="2003" fill="#ffffff"></path><path d="M443.458951 201.740724l482.019175 0c19.007913 0 34.43323-15.425318 34.43323-34.426067 0-19.007913-15.425318-34.43323-34.43323-34.43323L443.458951 132.881426c-19.007913 0-34.43323 15.425318-34.43323 34.43323C409.025721 186.316429 424.451038 201.740724 443.458951 201.740724L443.458951 201.740724zM443.458951 201.740724" p-id="2004" fill="#ffffff"></path><path d="M236.874919 477.18303 99.157347 477.18303c-19.007913 0-34.43323 15.425318-34.43323 34.43323 0 19.000749 15.425318 34.426067 34.43323 34.426067l137.717571 0c19.007913 0 34.43323-15.425318 34.43323-34.426067C271.308149 492.608348 255.882831 477.18303 236.874919 477.18303L236.874919 477.18303zM236.874919 477.18303" p-id="2005" fill="#ffffff"></path><path d="M925.477103 477.18303 443.458951 477.18303c-19.007913 0-34.43323 15.425318-34.43323 34.43323 0 19.000749 15.425318 34.426067 34.43323 34.426067l482.019175 0c19.007913 0 34.43323-15.425318 34.43323-34.426067C959.910333 492.608348 944.485015 477.18303 925.477103 477.18303L925.477103 477.18303zM925.477103 477.18303" p-id="2006" fill="#ffffff"></path><path d="M236.874919 821.484633 99.157347 821.484633c-19.007913 0-34.43323 15.425318-34.43323 34.43323 0 19.000749 15.425318 34.426067 34.43323 34.426067l137.717571 0c19.007913 0 34.43323-15.425318 34.43323-34.426067C271.308149 836.908928 255.882831 821.484633 236.874919 821.484633L236.874919 821.484633zM236.874919 821.484633" p-id="2007" fill="#ffffff"></path><path d="M925.477103 821.484633 443.458951 821.484633c-19.007913 0-34.43323 15.425318-34.43323 34.43323 0 19.000749 15.425318 34.426067 34.43323 34.426067l482.019175 0c19.007913 0 34.43323-15.425318 34.43323-34.426067C959.910333 836.908928 944.485015 821.484633 925.477103 821.484633L925.477103 821.484633zM925.477103 821.484633" p-id="2008" fill="#ffffff"></path></svg>