<?xml version="1.0" standalone="no"?><!DOCTYPE svg PUBLIC "-//W3C//DTD SVG 1.1//EN" "http://www.w3.org/Graphics/SVG/1.1/DTD/svg11.dtd"><svg t="1489846492600" class="icon" style="" viewBox="0 0 1024 1024" version="1.1" xmlns="http://www.w3.org/2000/svg" p-id="1374" xmlns:xlink="http://www.w3.org/1999/xlink" width="200" height="200"><defs><style type="text/css"></style></defs><path d="M576.7 677L554 666V358l22.7-11 196 154v22l-196 154z m5.3-290.2v250.4L741.4 512 582 386.8zM296.6 677L274 666V358l22.7-11 196 154v22L296.6 677z m5.4-290.2v250.4L461.3 512 302 386.8z" p-id="1375" fill="#ffffff"></path><path d="M512 960.1c-119.7 0-232.2-46.6-316.8-131.3C110.5 744.2 63.9 631.7 63.9 512c0-119.7 46.6-232.2 131.2-316.8C279.8 110.6 392.3 63.9 512 63.9c119.7 0 232.2 46.6 316.8 131.3 84.6 84.6 131.3 197.1 131.3 316.8 0 119.7-46.6 232.2-131.3 316.8-84.6 84.6-197.1 131.3-316.8 131.3z m0-868.2c-112.2 0-217.7 43.7-297 123-79.3 79.3-123 184.8-123 297 0 112.2 43.7 217.7 123 297 79.3 79.3 184.8 123 297 123 112.2 0 217.7-43.7 297-123 79.3-79.3 123-184.8 123-297 0-112.2-43.7-217.7-123-297-79.3-79.2-184.8-123-297-123z" p-id="1376" fill="#ffffff"></path></svg>