<?xml version="1.0" standalone="no"?><!DOCTYPE svg PUBLIC "-//W3C//DTD SVG 1.1//EN" "http://www.w3.org/Graphics/SVG/1.1/DTD/svg11.dtd"><svg t="1489846449177" class="icon" style="" viewBox="0 0 1024 1024" version="1.1" xmlns="http://www.w3.org/2000/svg" p-id="840" xmlns:xlink="http://www.w3.org/1999/xlink" width="200" height="200"><defs><style type="text/css"></style></defs><path d="M450.6 677.1l-22.7-11V357.9l22.7-11L646.7 501v22L450.6 677.1z m5.4-290.3v250.5L615.4 512 456 386.8z" p-id="841" fill="#ffffff"></path><path d="M512 960.2c-119.7 0-232.3-46.6-316.9-131.3C110.4 744.3 63.8 631.7 63.8 512c0-119.7 46.6-232.3 131.3-316.9C279.7 110.4 392.3 63.8 512 63.8c119.7 0 232.3 46.6 316.9 131.3 84.7 84.6 131.3 197.2 131.3 316.9 0 119.7-46.6 232.2-131.3 316.9-84.6 84.7-197.2 131.3-316.9 131.3z m0-868.4c-112.2 0-217.7 43.7-297.1 123.1C135.5 294.3 91.8 399.8 91.8 512c0 112.2 43.7 217.7 123.1 297.1 79.4 79.4 184.9 123.1 297.1 123.1s217.7-43.7 297.1-123.1c79.4-79.4 123.1-184.9 123.1-297.1 0-112.2-43.7-217.7-123.1-297.1C729.7 135.5 624.2 91.8 512 91.8z" p-id="842" fill="#ffffff"></path></svg>