<?xml version="1.0" standalone="no"?><!DOCTYPE svg PUBLIC "-//W3C//DTD SVG 1.1//EN" "http://www.w3.org/Graphics/SVG/1.1/DTD/svg11.dtd"><svg t="1489846482374" class="icon" style="" viewBox="0 0 1024 1024" version="1.1" xmlns="http://www.w3.org/2000/svg" p-id="1196" xmlns:xlink="http://www.w3.org/1999/xlink" width="200" height="200"><defs><style type="text/css"></style></defs><path d="M447.4 676.9L251.5 523v-22l195.9-153.9 22.6 11v307.8l-22.6 11zM282.8 512L442 637.1V386.9L282.8 512zM727.2 676.9L531.3 523v-22l195.9-153.9 22.6 11v307.8l-22.6 11zM562.6 512l159.3 125.1V386.9L562.6 512z" p-id="1197" fill="#ffffff"></path><path d="M512 959.8c-119.6 0-232-46.6-316.6-131.2C110.8 744 64.2 631.6 64.2 512c0-119.6 46.6-232 131.2-316.6C280 110.8 392.4 64.2 512 64.2c119.6 0 232 46.6 316.6 131.2 84.6 84.6 131.2 197 131.2 316.6 0 119.6-46.6 232-131.2 316.6-84.6 84.6-197 131.2-316.6 131.2z m0-867.6c-112.1 0-217.5 43.7-296.8 123-79.3 79.3-123 184.7-123 296.8 0 112.1 43.7 217.5 123 296.8 79.3 79.3 184.7 123 296.8 123s217.5-43.7 296.8-123c79.3-79.3 123-184.7 123-296.8 0-112.1-43.7-217.5-123-296.8-79.3-79.3-184.7-123-296.8-123z" p-id="1198" fill="#ffffff"></path></svg>