<?xml version="1.0" standalone="no"?><!DOCTYPE svg PUBLIC "-//W3C//DTD SVG 1.1//EN" "http://www.w3.org/Graphics/SVG/1.1/DTD/svg11.dtd"><svg t="1490881551656" class="icon" style="" viewBox="0 0 1024 1024" version="1.1" xmlns="http://www.w3.org/2000/svg" p-id="11049" xmlns:xlink="http://www.w3.org/1999/xlink" width="128" height="128"><defs><style type="text/css"></style></defs><path d="M930.535817 958.104197c-7.158027 0-14.31503-2.731204-19.751856-8.16803L631.024326 670.122297c-10.955516-10.900258-10.955516-28.631084 0-39.531342 10.955516-10.92891 28.631084-10.92891 39.559994 0l279.757588 279.756565c10.901281 10.957563 10.901281 28.632107 0 39.58967C944.906106 955.372993 937.749102 958.104197 930.535817 958.104197L930.535817 958.104197zM91.287611 958.104197c-7.158027 0-14.31503-2.731204-19.779486-8.16803-10.92891-10.956539-10.92891-28.631084 0-39.58967l399.884526-399.856897L71.508125 110.6194c-10.92891-10.900258-10.92891-28.631084 0-39.518039 10.900258-10.955516 28.631084-10.955516 39.5866 0l399.802662 399.802662L910.78396 71.101361c10.927887-10.955516 28.631084-10.955516 39.557948 0 10.901281 10.886955 10.901281 28.617781 0 39.518039L111.094726 949.936167C105.603665 955.372993 98.445638 958.104197 91.287611 958.104197L91.287611 958.104197z" p-id="11050"></path></svg>