<?xml version="1.0" standalone="no"?><!DOCTYPE svg PUBLIC "-//W3C//DTD SVG 1.1//EN" "http://www.w3.org/Graphics/SVG/1.1/DTD/svg11.dtd"><svg t="1490883950605" class="icon" style="" viewBox="0 0 1024 1024" version="1.1" xmlns="http://www.w3.org/2000/svg" p-id="13159" xmlns:xlink="http://www.w3.org/1999/xlink" width="128" height="128"><defs><style type="text/css"></style></defs><path d="M716.6003 213.800623c-138.851102-138.915088-364.020238-138.915088-502.935326 0s-138.915088 364.084225 0 502.935326a355.573996 355.573996 0 0 0 502.935326 0 355.573996 355.573996 0 0 0 0-502.935326z m-580.359212 580.359212a465.183184 465.183184 0 1 1 657.783099 0 465.183184 465.183184 0 0 1-657.783099 0z m868.939152 211.156054a63.474789 63.474789 0 0 1-89.837303 0l-89.773316-89.837303a63.410803 63.410803 0 1 1 89.773316-89.773316l89.837303 89.773316a63.346816 63.346816 0 0 1 0 89.837303z" fill="#0f89f5" p-id="13160"></path></svg>