<?xml version="1.0" standalone="no"?><!DOCTYPE svg PUBLIC "-//W3C//DTD SVG 1.1//EN" "http://www.w3.org/Graphics/SVG/1.1/DTD/svg11.dtd"><svg t="1491393016684" class="icon" style="" viewBox="0 0 1024 1024" version="1.1" xmlns="http://www.w3.org/2000/svg" p-id="11012" xmlns:xlink="http://www.w3.org/1999/xlink" width="128" height="128"><defs><style type="text/css"></style></defs><path d="M431.524864 296.617984l454.747136 0c39.734272 0 71.88992-32.210944 71.88992-71.918592 0-39.707648-32.155648-71.903232-71.88992-71.903232L431.524864 152.79616c-39.71584 0-71.912448 32.195584-71.912448 71.903232C359.612416 264.40704 391.808 296.617984 431.524864 296.617984z" p-id="11013" fill="#ffffff"></path><path d="M222.261248 152.79616l-86.244352 0c-39.723008 0-71.918592 32.195584-71.918592 71.903232 0 39.707648 32.195584 71.918592 71.918592 71.918592l86.244352 0c39.7312 0 71.926784-32.210944 71.926784-71.918592C294.188032 184.991744 261.992448 152.79616 222.261248 152.79616z" p-id="11014" fill="#ffffff"></path><path d="M886.272 440.438784 431.524864 440.438784c-39.71584 0-71.912448 32.195584-71.912448 71.903232 0 39.709696 32.195584 71.918592 71.912448 71.918592l454.747136 0c39.734272 0 71.88992-32.208896 71.88992-71.918592C958.16192 472.635392 926.005248 440.438784 886.272 440.438784z" p-id="11015" fill="#ffffff"></path><path d="M222.261248 440.438784l-86.244352 0c-39.723008 0-71.918592 32.195584-71.918592 71.903232 0 39.709696 32.195584 71.918592 71.918592 71.918592l86.244352 0c39.7312 0 71.926784-32.208896 71.926784-71.918592C294.188032 472.635392 261.992448 440.438784 222.261248 440.438784z" p-id="11016" fill="#ffffff"></path><path d="M886.272 728.06912 431.524864 728.06912c-39.71584 0-71.912448 32.207872-71.912448 71.9104 0 39.71584 32.195584 71.917568 71.912448 71.917568l454.747136 0c39.734272 0 71.88992-32.201728 71.88992-71.917568C958.16192 760.276992 926.005248 728.06912 886.272 728.06912z" p-id="11017" fill="#ffffff"></path><path d="M222.261248 728.06912l-86.244352 0c-39.723008 0-71.918592 32.207872-71.918592 71.9104 0 39.71584 32.195584 71.917568 71.918592 71.917568l86.244352 0c39.7312 0 71.926784-32.201728 71.926784-71.917568C294.188032 760.276992 261.992448 728.06912 222.261248 728.06912z" p-id="11018" fill="#ffffff"></path></svg>