<?xml version="1.0" standalone="no"?><!DOCTYPE svg PUBLIC "-//W3C//DTD SVG 1.1//EN" "http://www.w3.org/Graphics/SVG/1.1/DTD/svg11.dtd"><svg t="1491445406698" class="icon" style="" viewBox="0 0 1024 1024" version="1.1" xmlns="http://www.w3.org/2000/svg" p-id="11021" xmlns:xlink="http://www.w3.org/1999/xlink" width="128" height="128"><defs><style type="text/css"></style></defs><path d="M945.605024 365.123838L740.748333 160.281473c-15.573697-15.573697-40.658002-15.717983-56.488549-0.60682-44.522006 47.26549-49.722448 78.558194-96.731088 97.195669-0.733711 0.909719-6.734378 2.681062-6.734379 2.681062-21.223371 7.516184-44.519959 11.697413-68.935022 11.697413-24.445762 0-47.743374-4.181229-68.936045-11.697413 0 0-9.732665-2.983961-11.009751-4.403286-43.531446-18.495236-57.987692-47.393403-91.27482-91.595115l-3.25616-3.255137c-15.829524-15.814174-41.456181-15.829524-57.253982 0L75.268776 365.123838c-15.797801 15.830547-15.797801 41.441854 0 57.255005l93.317339 93.317339c15.797801 15.797801 41.457204 15.797801 57.255005 0l43.020816-43.036165v323.994092c0 36.303834 29.42517 65.729004 65.744353 65.729003h351.665315c36.31816 0 65.744353-29.426193 65.744353-65.729003V472.643644l43.019793 43.036165c15.796778 15.814174 41.455157 15.814174 57.253982 0.016373l93.315292-93.317339c15.799848-15.814174 15.799848-41.424458 0-57.255005zM549.868981 668.997684c-12.607132 11.967566-27.477818 18.047028-44.137243 18.047028-29.170366 0-52.18043-15.796778-68.329225-46.913473l-1.787716-3.446495 24.925693-14.713097 2.009773 3.733021c11.712763 21.606087 25.244964 32.567743 40.244586 32.567743 9.828856 0 17.969257-3.01466 24.89397-9.237385 6.827499-6.127558 10.116405-13.499455 10.116405-22.562878 0-7.054673-2.967588-14.426571-8.841365-21.89466-6.189979-7.91425-17.327644-17.841344-33.030278-29.52136-14.265912-10.850116-23.808242-18.941398-29.233811-24.766057-5.52176-5.966898-9.670244-12.44545-12.285815-19.259646-2.617617-6.780427-3.959172-13.770632-3.959171-20.72809 0-14.808264 5.330402-27.509541 15.797801-37.785581 10.4367-10.229992 23.712051-15.415085 39.479153-15.415085 12.317537 0 23.297612 3.143597 32.55137 9.367345 9.001001 6.04774 17.776875 15.046694 26.075889 26.759457l2.2656 3.191692-23.458272 18.191314-2.48868-3.351327c-5.298679-7.181563-10.788717-13.164834-16.404622-17.823948-5.169743-4.308119-11.426237-6.39771-19.149129-6.39771-7.402597 0-13.275351 2.137687-17.904789 6.510274-4.594645 4.339842-6.829546 9.622148-6.829545 16.164145 0 7.133468 2.044566 13.053294 6.255471 18.127869 4.595668 5.504364 15.575744 14.632255 32.648584 27.094078 16.787338 12.576433 29.265534 24.432459 37.211507 35.314297 8.233522 11.250228 12.416797 23.345708 12.416797 35.935444 0.001023 16.371876-6.415107 30.7964-19.052938 42.813085z" fill="#1565C0" p-id="11022"></path></svg>