<?xml version="1.0" standalone="no"?><!DOCTYPE svg PUBLIC "-//W3C//DTD SVG 1.1//EN" "http://www.w3.org/Graphics/SVG/1.1/DTD/svg11.dtd"><svg t="1491469374039" class="icon" style="" viewBox="0 0 1024 1024" version="1.1" xmlns="http://www.w3.org/2000/svg" p-id="15159" xmlns:xlink="http://www.w3.org/1999/xlink" width="128" height="128"><defs><style type="text/css"></style></defs><path d="M572.462111 512.016l438.898284-438.898284c16.767476-16.703478 16.767476-43.83863 0-60.47811-16.703478-16.767476-43.83863-16.767476-60.47811 0L511.984 451.537889 73.085716 12.575607c-16.703478-16.767476-43.83863-16.767476-60.47811 0-16.767476 16.703478-16.767476 43.83863 0 60.47811L451.441892 512.016l-438.834286 438.898284c-16.767476 16.703478-16.767476 43.83863 0 60.47811C20.863348 1019.84013 31.871004 1024 42.814662 1024s21.887316-4.15987 30.271054-12.543608L511.984 572.558108l438.898284 438.834286C959.266023 1019.84013 970.209681 1024 981.153339 1024s21.951314-4.15987 30.271054-12.543608c16.767476-16.703478 16.767476-43.83863 0-60.47811L572.462111 512.016z" p-id="15160" fill="#8a8a8a"></path></svg>