<?xml version="1.0" standalone="no"?><!DOCTYPE svg PUBLIC "-//W3C//DTD SVG 1.1//EN" "http://www.w3.org/Graphics/SVG/1.1/DTD/svg11.dtd"><svg t="1491469194470" class="icon" style="" viewBox="0 0 1024 1024" version="1.1" xmlns="http://www.w3.org/2000/svg" p-id="14128" xmlns:xlink="http://www.w3.org/1999/xlink" width="128" height="128"><defs><style type="text/css"></style></defs><path d="M922.9 339.2c-22.5-53.2-54.7-101-95.7-142S738.3 124 685.1 101.5C630 78.1 571.5 66.3 511.2 66.3 404.9 66.3 303.9 103.7 224 170.8v-72.4c0-17.7-14.3-32-32-32s-32 14.3-32 32v143.1c-2.9 11.6 0.8 24.4 10.7 32.5 8 6.6 18.3 8.7 27.7 6.5 1.9 0.3 3.8 0.5 5.7 0.5h156.2c17.7 0 32-14.3 32-32s-14.3-32-32-32h-91.8c68-55.7 153.2-86.7 242.7-86.7C722.3 130.3 894 302.1 894 513.1S722.3 895.9 511.2 895.9 128.4 724.2 128.4 513.1c0-17.7-14.3-32-32-32s-32 14.3-32 32c0 60.3 11.8 118.8 35.1 173.9 22.5 53.2 54.7 101 95.7 142s88.8 73.2 142 95.7c55.1 23.3 113.6 35.1 173.9 35.1 60.3 0 118.8-11.8 173.9-35.1 53.2-22.5 101-54.7 142-95.7s73.2-88.8 95.7-142c23.5-55 35.3-113.6 35.3-173.9 0-60.3-11.8-118.8-35.1-173.9z" p-id="14129" fill="#8a8a8a"></path><path d="M475.6 303c-17.7 0-32 14.3-32 32v256c0 17.7 14.3 32 32 32h246.2c17.7 0 32-14.3 32-32s-14.3-32-32-32H507.6V335c0-17.7-14.3-32-32-32z" p-id="14130" fill="#8a8a8a"></path></svg>