<?xml version="1.0" standalone="no"?><!DOCTYPE svg PUBLIC "-//W3C//DTD SVG 1.1//EN" "http://www.w3.org/Graphics/SVG/1.1/DTD/svg11.dtd"><svg t="1491300793976" class="icon" style="" viewBox="0 0 1024 1024" version="1.1" xmlns="http://www.w3.org/2000/svg" p-id="6923" xmlns:xlink="http://www.w3.org/1999/xlink" width="128" height="128"><defs><style type="text/css"></style></defs><path d="M957.776239 374.235935c-49.62737-131.319177-214.171104-169.119765-214.171104-169.119765-90.39271-23.041279-120.362485-112.273868-130.35241-165.059343-4.414902-23.041279-24.491429-39.766347-47.887189-39.830798L478.904345 0.00045c-17.369579-0.064451-34.062422 6.799594-46.340362 19.077534-12.27794 12.27794-19.206437 28.906332-19.206437 46.308137l0 587.794304c-0.225579-0.064451-0.418932-0.064451-0.58006-0.193353-28.874106-6.799594-59.327265-10.569985-90.328258-10.569985-148.334275 0-268.567858 85.397747-268.567858 190.839795 0 105.345372 120.233583 190.743119 268.567858 190.743119 143.371538 0 276.173091-79.85495 284.938445-180.237584 0.386707-3.480361 0.934541-483.286797 0.934541-483.286797 44.310152 15.210467 86.461191 20.044301 114.916364 22.944602 48.241671 4.801609 124.068425-0.128902 142.211418 85.687777 13.695865 64.515581-28.616302 115.335297-50.368558 136.539718-7.057399 6.864045-8.733128 17.498482-4.221549 26.167159l1.869083 3.383684c3.254782 6.090632 8.829805 10.634436 15.564948 12.471294 6.735143 1.869083 14.018121 0.676737 19.818722-3.093654C1024.483159 531.496692 957.776239 374.235935 957.776239 374.235935zM407.073561 755.109886c-2.25579 26.876121-25.490422 47.146001-52.721024 44.439054-126.807598-10.344406-142.727027 57.780438-142.855929 58.392724-4.833835 23.041279-25.135941 38.767355-47.693836 38.767355-3.351459 0-6.670692-0.451158-10.054376-1.063444C127.355657 890.102778 110.501687 864.2901 116.012259 837.929588c11.150045-53.236633 77.180228-150.04223 246.557797-135.572952C389.446177 704.644652 409.361576 728.298216 407.073561 755.109886z" p-id="6924" fill="#707070"></path></svg>