<?xml version="1.0" standalone="no"?><!DOCTYPE svg PUBLIC "-//W3C//DTD SVG 1.1//EN" "http://www.w3.org/Graphics/SVG/1.1/DTD/svg11.dtd"><svg t="1491284757583" class="icon" style="" viewBox="0 0 1024 1024" version="1.1" xmlns="http://www.w3.org/2000/svg" p-id="5961" xmlns:xlink="http://www.w3.org/1999/xlink" width="128" height="128"><defs><style type="text/css"></style></defs><path d="M47.653 439.326c-24.501 0-44.368 19.881-44.368 44.4v56.548c0 24.492 19.862 44.4 44.368 44.4h928.694c24.501 0 44.368-19.881 44.368-44.4v-56.548c0-24.497-19.862-44.4-44.368-44.4h-928.694z" p-id="5962" fill="#bfbfbf"></path><path d="M586.326 47.653c0-24.501-19.881-44.368-44.4-44.368h-56.548c-24.492 0-44.4 19.862-44.4 44.368v928.694c0 24.501 19.881 44.368 44.4 44.368h56.548c24.497 0 44.4-19.862 44.4-44.368v-928.694z" p-id="5963" fill="#bfbfbf"></path></svg>