<?xml version="1.0" standalone="no"?><!DOCTYPE svg PUBLIC "-//W3C//DTD SVG 1.1//EN" "http://www.w3.org/Graphics/SVG/1.1/DTD/svg11.dtd"><svg t="1491262419642" class="icon" style="" viewBox="0 0 1024 1024" version="1.1" xmlns="http://www.w3.org/2000/svg" p-id="3857" xmlns:xlink="http://www.w3.org/1999/xlink" width="128" height="128"><defs><style type="text/css"></style></defs><path d="M511.152191 1010.670413l-0.121773 0c-66.178235-0.01842-130.391722-12.997012-190.853769-38.588877-58.382689-24.708751-110.805642-60.072167-155.815765-105.10071C119.35076 821.953308 84.01702 769.510912 59.333852 711.11185c-25.562189-60.47228-38.518269-124.688837-38.498826-190.868095 0.014326-66.177212 12.998035-130.389676 38.587853-190.852746 24.710798-58.378595 60.072167-110.806665 105.10071-155.815765 45.033659-45.0091 97.476055-80.34284 155.868977-105.024985 60.430324-25.543769 124.614136-38.499849 190.745299-38.499849l0.121773 0c66.179258 0.01535 130.390699 12.998035 190.848653 38.587853 58.383712 24.711821 110.806665 60.07319 155.816788 105.10071 45.010123 45.032636 80.347956 97.476055 105.031125 155.867954 25.558096 60.47228 38.513152 124.693953 38.493709 190.868095-0.019443 91.99932-25.675776 181.676759-74.193793 259.337513l-50.203402-31.362288c42.638099-68.248384 65.185628-147.084916 65.204048-227.987504 0.019443-58.20975-11.364839-114.669646-33.827433-167.80789-21.696138-51.337225-52.775994-97.456612-92.371804-137.065725-39.58967-39.613206-85.691661-70.712505-137.018653-92.437296C625.909841 100.665701 569.460178 89.25686 511.246335 89.243557l-0.107447 0c-58.177004 0-114.598015 11.380188-167.69942 33.827433-51.341319 21.701255-97.456612 52.775994-137.065725 92.371804-39.613206 39.594787-70.712505 85.695754-92.436272 137.02377C91.450317 405.590482 80.042499 462.046285 80.02715 520.260128c-0.01228 58.213843 11.365862 114.672716 33.828456 167.806867 21.701255 51.341319 52.775994 97.456612 92.370781 137.071865 39.58967 39.607066 85.695754 70.708412 137.02377 92.432179 53.123918 22.485107 109.578698 33.891901 167.793564 33.906228l0.107447 0c49.270147 0 97.574293-8.236592 143.581116-24.479531 44.496423-15.712867 85.932138-38.566364 123.160018-67.929112l36.654828 46.476521c-42.338271 33.390481-89.473801 59.386552-140.109038 77.266781C622.090862 1001.293859 567.150576 1010.670413 511.152191 1010.670413L511.152191 1010.670413zM702.457238 287.840684" p-id="3858" fill="#707070"></path><path d="M758.288824 486.574934c-2.987031-0.427742-5.650697-2.561335-7.997138-6.39771-2.344395-3.840468-4.161786-10.877745-5.438872-21.118993-2.131547-16.636912-7.571443-28.900214-16.319687-36.793998-8.743128-7.890714-22.288632-13.544481-40.630373-16.956184-19.197224-3.838422-36.156478-11.624758-50.870598-23.355941-14.71719-11.730159-26.983561-22.717398-36.795021-32.954553-9.382695-8.958022-16.637935-12.158924-21.757536-9.599635-5.118578 2.561335-7.67889 7.252171-7.67889 14.078647l0 27.51568 0 60.148915c0 23.887037-0.103354 49.696866-0.318248 77.428464-0.210801 27.725458-0.319272 53.963029-0.319272 78.706573l0 65.268516 0 36.468586c0.427742 10.242272-1.176802 21.652136-4.801353 34.234709-3.623527 12.58462-10.450003 24.423249-20.47431 35.515888-10.026354 11.090593-23.357987 20.583804-39.992853 28.475542-16.637935 7.891737-37.329187 12.476149-62.070684 13.755282-25.167193 1.280156-47.882544-3.197832-68.147076-13.440104-20.262486-10.234085-35.94056-23.139-47.032176-38.708604-11.090593-15.570627-16.531512-32.637328-16.316617-51.193962 0.212848-18.554588 8.211009-35.94056 23.995507-52.148707 15.784498-16.210193 32.848129-27.51568 51.192939-33.914414 18.340717-6.396687 36.044938-9.918907 53.109592-10.559497 17.062608-0.636496 32.31294 0.534166 45.753043 3.52222 13.437034 2.987031 23.352871 5.756097 29.752628 8.317433L515.131829 441.782775c0-50.339502 0.212848-107.077737 0.64059-170.20959 0-12.371772 3.200902-22.50148 9.598612-30.396287 6.399757-7.889691 14.931061-12.477172 25.593911-13.757329 8.958022-1.279133 16.318664 0.533143 22.074761 5.439896 5.762237 4.906753 11.625782 11.731182 17.599843 20.47738 5.972015 8.745175 13.33061 18.661012 22.073738 29.751604 8.748245 11.091616 20.585851 21.972431 35.514865 32.637328 12.796444 9.80839 23.99346 16.848737 33.593096 21.113877 9.601682 4.269233 18.559705 8.214079 26.878161 11.838629 8.316409 3.62762 16.528442 8.000208 24.632004 13.117762 8.108678 5.120624 17.067724 13.437034 26.878161 24.956392 9.81146 11.090593 15.784498 22.60995 17.917068 34.556027 2.131547 11.945053 2.238994 22.822798 0.319272 32.632211-1.919722 9.812483-5.013177 17.809621-9.277294 23.998577C764.899382 484.122069 761.274832 487.001653 758.288824 486.574934L758.288824 486.574934zM758.288824 486.574934" p-id="3859" fill="#707070"></path></svg>